<svg width="15" height="15" viewBox="0 0 15 15" fill="none" xmlns="http://www.w3.org/2000/svg">
<path d="M13.8766 12.4139H1.12339C0.50294 12.4139 0 11.9109 0 11.2905V3.70969C0 3.08927 0.50294 2.5863 1.12339 2.5863H13.8766C14.497 2.5863 15 3.08924 15 3.70969V11.2905C15 11.9109 14.4971 12.4139 13.8766 12.4139Z" fill="#FF4B55"/>
<path d="M10.3285 8.72463C10.1871 8.63574 10.1023 8.77716 10.1023 8.77716L9.69008 8.82565L9.89615 8.65189C10.0457 8.66401 10.0659 8.61957 10.1063 8.55896C10.1467 8.49834 10.3164 8.52664 10.3164 8.52664C10.2921 8.34075 10.0578 8.44581 10.0578 8.44581C9.86782 8.4256 9.83551 8.57917 9.83551 8.57917L9.54052 8.80546L8.89133 8.6131C8.95865 8.53892 9.01153 8.46582 9.01924 8.42155C9.03216 8.34723 8.53974 8.22219 8.38886 8.06595C8.23801 7.90968 8.18413 7.66186 8.25418 7.5972C8.3242 7.53254 8.3835 7.7157 8.45891 7.86658C8.53435 8.01746 8.67444 8.13597 8.76603 8.06056C8.85761 7.98515 8.66905 7.872 8.58283 7.71034C8.49664 7.54871 8.64749 7.48942 8.71754 7.50559C8.78759 7.52176 8.83068 7.85583 8.99773 8.02821C9.16473 8.20063 9.31561 8.16828 9.33178 8.06053C9.34795 7.95277 9.05612 7.82 8.99683 7.72839C8.93756 7.63681 8.92227 7.45707 9.01927 7.45171C9.11624 7.44632 9.47185 7.9763 9.7736 8.17909C10.1023 8.39999 10.3663 8.14136 10.3232 8.0336C10.2801 7.92582 10.0807 7.96895 9.84904 7.90965C9.61736 7.85038 9.38029 7.53787 9.31024 7.36549C9.2402 7.19311 9.29812 7.19308 9.33855 7.20925C9.37895 7.22542 9.53252 7.45171 9.82751 7.62547C10.1225 7.79923 10.3286 7.63356 10.3528 7.59316C10.3771 7.55275 10.4703 7.37135 10.1669 7.41401C9.82215 7.46249 9.62545 7.25776 9.48403 7.14866C9.34259 7.03956 9.28602 6.89003 9.35067 6.82941C9.41533 6.7688 9.62817 7.04223 9.95144 7.12845C10.2484 7.20761 10.369 7.07996 10.3609 6.96277C10.3528 6.84559 10.2841 6.89407 9.94871 6.86176C9.61332 6.82944 9.37895 6.51424 9.36682 6.49402C9.35469 6.47381 9.35873 6.36066 9.52845 6.46977C9.69816 6.57887 10.0012 6.64353 10.179 6.63544C10.3568 6.62735 10.3932 6.38894 10.3084 6.34854C10.2235 6.30814 10.2033 6.36875 10.0093 6.40915C9.81535 6.44955 9.45169 6.25156 9.36277 6.1586C9.27389 6.06567 9.37086 6.00506 9.4153 6.01312C9.45975 6.02117 9.75069 6.19092 10.0093 6.18283C10.268 6.17475 10.3771 5.93633 10.369 5.86359C10.3609 5.79084 10.2881 5.73023 10.179 5.80297C10.0699 5.87571 9.92445 5.96056 9.68199 5.92016C9.43953 5.87976 9.32639 5.7181 9.35873 5.65748C9.39105 5.59687 9.62542 5.70192 9.9972 5.66152C10.369 5.62112 10.3851 5.29379 10.3488 5.22913C10.3124 5.16447 10.2235 5.18469 10.0982 5.30188C9.97294 5.41906 9.73048 5.44332 9.54058 5.44332C9.35067 5.44332 9.3466 5.35039 9.3749 5.28573C9.4032 5.22108 9.60523 5.23725 9.8881 5.14833C10.171 5.05944 10.3326 4.83313 10.3771 4.69171C10.4215 4.55026 10.3124 4.44116 10.268 4.44116C10.2235 4.44116 10.2518 4.3765 10.0578 4.65532C9.8639 4.93414 9.35472 5.04324 9.35472 5.04324C9.31836 4.97454 9.26179 4.95031 9.26179 4.95031C8.91831 5.01901 8.50399 5.31559 8.50399 5.31559C8.50399 5.31559 8.57703 5.54984 8.48577 5.73242C8.36826 5.96744 7.96549 5.82064 8.07503 5.44947C8.16623 5.14039 8.51923 4.95354 8.81744 4.92005C9.11562 4.88659 9.13083 4.77401 9.13083 4.77401C9.13083 4.77401 8.81771 4.87596 8.81211 4.73601C8.87677 4.74913 8.97207 4.75484 9.13388 4.74052C9.37426 4.71925 9.50814 4.54883 9.40165 4.51233C9.29516 4.47582 9.3408 4.58536 9.15822 4.67056C9.028 4.73132 8.89133 4.70396 8.82292 4.68318C8.88611 4.5452 9.15216 4.61577 9.15216 4.61577C9.15521 4.37539 8.83625 4.46138 8.83625 4.46138C8.69618 4.15962 7.87719 4.50986 7.87719 4.50986L8.07116 4.6661C7.59699 4.9301 7.49999 5.43116 7.49999 5.43116C7.49999 5.43116 7.40302 4.9301 6.92885 4.66608L7.12282 4.50983C7.12282 4.50983 6.30383 4.15959 6.16376 4.46135C6.16376 4.46135 5.84478 4.37539 5.84785 4.61574C5.84785 4.61574 6.11387 4.54517 6.17709 4.68316C6.10868 4.70396 5.97201 4.73129 5.84179 4.67053C5.65924 4.5853 5.70488 4.47582 5.59836 4.5123C5.49187 4.5488 5.62575 4.71919 5.86613 4.74049C6.02794 4.75482 6.12324 4.74913 6.1879 4.73598C6.1823 4.87593 5.86918 4.77398 5.86918 4.77398C5.86918 4.77398 5.88441 4.88653 6.18257 4.92002C6.48075 4.95351 6.83378 5.14036 6.92498 5.44944C7.03449 5.82064 6.63175 5.96738 6.51424 5.73239C6.42295 5.54984 6.49602 5.31556 6.49602 5.31556C6.49602 5.31556 6.0817 5.01899 5.73822 4.95028C5.73822 4.95028 5.68165 4.97454 5.64529 5.04321C5.64529 5.04321 5.13614 4.93411 4.94217 4.65529C4.74819 4.37648 4.77649 4.44113 4.73205 4.44113C4.68761 4.44113 4.57851 4.55024 4.62295 4.69168C4.66739 4.83313 4.82902 5.05941 5.11191 5.1483C5.39478 5.23719 5.59684 5.22105 5.62511 5.2857C5.65338 5.35036 5.64937 5.44329 5.45943 5.44329C5.2695 5.44329 5.02704 5.41903 4.9018 5.30185C4.77655 5.18466 4.68764 5.16444 4.65125 5.2291C4.61489 5.29376 4.63104 5.62107 5.00281 5.6615C5.37459 5.7019 5.60897 5.59684 5.64128 5.65745C5.67359 5.71807 5.56045 5.8797 5.31802 5.92013C5.07556 5.96053 4.9301 5.87568 4.82097 5.80294C4.71184 5.7302 4.63912 5.79081 4.63104 5.86356C4.62295 5.9363 4.73205 6.17472 4.99068 6.1828C5.24932 6.19089 5.54026 6.02117 5.58471 6.01309C5.62915 6.005 5.72615 6.06562 5.63724 6.15858C5.54835 6.25151 5.18466 6.44952 4.99068 6.40912C4.79671 6.36872 4.77652 6.30811 4.69165 6.34851C4.60678 6.38891 4.64316 6.62733 4.82097 6.63541C4.99877 6.6435 5.30185 6.57884 5.47156 6.46974C5.64128 6.36064 5.64532 6.47378 5.63319 6.494C5.62106 6.51421 5.38669 6.82939 5.0513 6.86173C4.71591 6.89404 4.64721 6.84556 4.63912 6.96275C4.63104 7.07993 4.75165 7.20761 5.0486 7.12842C5.37187 7.0422 5.58474 6.76877 5.64937 6.82939C5.71399 6.89 5.65745 7.0395 5.51601 7.14863C5.37456 7.25776 5.17789 7.46246 4.8331 7.41398C4.52976 7.37135 4.62298 7.55273 4.64721 7.59313C4.67147 7.63353 4.87754 7.7992 5.17253 7.62544C5.46752 7.45168 5.62106 7.22539 5.66149 7.20922C5.70189 7.19305 5.75984 7.19305 5.6898 7.36546C5.61975 7.53787 5.38268 7.85038 5.151 7.90962C4.91932 7.96892 4.71995 7.92579 4.67686 8.03357C4.63376 8.14133 4.89775 8.39993 5.22644 8.17906C5.52819 7.97627 5.8838 7.44629 5.98077 7.45168C6.07774 7.45704 6.06245 7.63678 6.00321 7.72836C5.94395 7.81997 5.65209 7.95274 5.66826 8.0605C5.68443 8.16825 5.83525 8.20057 6.0023 8.02818C6.16936 7.85577 6.21242 7.5217 6.2825 7.50556C6.35252 7.48939 6.5034 7.54868 6.41718 7.71031C6.33099 7.87194 6.1424 7.98509 6.23401 8.06053C6.3256 8.13594 6.46569 8.01743 6.54113 7.86655C6.61654 7.71567 6.67581 7.53251 6.74586 7.59717C6.81591 7.66183 6.76203 7.90965 6.61115 8.06592C6.4603 8.22216 5.96782 8.3472 5.98077 8.42152C5.98848 8.46579 6.04133 8.53889 6.10868 8.61307L5.45949 8.80543L5.1645 8.57914C5.1645 8.57914 5.13219 8.4256 4.94226 8.44578C4.94226 8.44578 4.70788 8.34072 4.68362 8.52661C4.68362 8.52661 4.85334 8.49831 4.89374 8.55893C4.93414 8.61954 4.95436 8.66399 5.10386 8.65186L5.30993 8.82562L4.89775 8.77713C4.89775 8.77713 4.81288 8.63568 4.67146 8.7246C4.67146 8.7246 4.49366 8.66803 4.44922 8.83774C4.44922 8.83774 4.60276 8.80944 4.64319 8.82966C4.64319 8.82966 4.70381 8.96706 4.89778 8.88623L5.30592 8.90645L5.07559 9.01959C5.07559 9.01959 4.78464 8.92666 4.79677 9.16909C4.79677 9.16909 4.71189 9.26607 4.78868 9.36307C4.78868 9.36307 4.80485 9.25801 4.88161 9.21357C4.88161 9.21357 5.03111 9.27418 5.12812 9.09638L5.42311 8.91857L5.71405 9.06002C5.71405 9.06002 5.70597 9.21761 5.92013 9.15295C5.92013 9.15295 5.99287 9.20144 6.01306 9.26609C6.01306 9.26609 6.10599 9.16508 5.95648 9.04789C5.95648 9.04789 5.92013 8.91049 5.74232 8.96302L5.57665 8.87815L6.18969 8.69624C6.29583 8.79734 6.41035 8.8802 6.45043 8.86631C6.52953 8.83892 6.59041 8.7568 6.64514 8.64113C6.69989 8.5255 6.94637 8.1239 7.06807 8.12697C7.18977 8.13002 7.24455 8.22734 7.21411 8.40081C7.1837 8.57422 6.94651 8.90645 6.79294 8.97515C6.63939 9.04385 6.61514 9.07616 6.47369 9.06403C6.33225 9.05191 6.28376 9.11252 6.3161 9.19335C6.34842 9.27418 6.50753 9.32557 6.66362 9.26609C6.83334 9.20144 6.898 9.11255 6.96266 9.16508C7.02731 9.21761 6.89396 9.40754 6.71211 9.46411C6.53026 9.52068 6.39286 9.48433 6.42116 9.59747C6.44946 9.71062 6.64341 9.7187 6.76868 9.64596C6.89396 9.57321 7.03537 9.37118 7.07176 9.43584C7.10812 9.5005 7.08389 9.66617 6.96266 9.75509C6.84143 9.84398 6.70353 9.79168 6.67575 9.87228C6.63535 9.98946 6.77677 10.0663 6.88587 10.0218C6.99497 9.97731 7.12024 9.83993 7.17682 9.7187C7.23339 9.59747 7.33845 9.70253 7.30613 9.81567C7.27382 9.92882 7.30074 10.0217 7.06906 10.1996L7.50011 10.8623L7.93115 10.1996C7.69947 10.0217 7.7264 9.92882 7.69405 9.81567C7.66171 9.70253 7.7668 9.59747 7.82337 9.7187C7.87994 9.83993 8.00521 9.97733 8.11432 10.0218C8.22342 10.0662 8.36486 9.98946 8.32443 9.87228C8.29666 9.79168 8.15876 9.84398 8.03753 9.75509C7.9163 9.6662 7.89204 9.5005 7.92843 9.43584C7.96479 9.37118 8.10623 9.57324 8.2315 9.64596C8.35678 9.7187 8.55075 9.71062 8.57902 9.59747C8.6073 9.48433 8.46992 9.52068 8.28808 9.46411C8.10623 9.40754 7.97287 9.21761 8.03753 9.16508C8.10219 9.11255 8.16685 9.20144 8.33656 9.26609C8.49269 9.32557 8.65177 9.27418 8.68408 9.19335C8.7164 9.11252 8.66791 9.05191 8.52649 9.06403C8.38505 9.07616 8.36082 9.04382 8.20725 8.97515C8.0537 8.90645 7.81651 8.57425 7.78607 8.40081C7.75566 8.22737 7.81042 8.12999 7.93212 8.12697C8.05382 8.1239 8.30026 8.5255 8.35505 8.64113C8.4098 8.75677 8.47065 8.83892 8.54976 8.86631C8.58986 8.8802 8.70441 8.79732 8.8105 8.69624L9.42354 8.87815L9.25786 8.96302C9.08006 8.91049 9.0437 9.04789 9.0437 9.04789C8.8942 9.16508 8.98713 9.26609 8.98713 9.26609C9.00734 9.20144 9.08006 9.15295 9.08006 9.15295C9.29422 9.21761 9.28613 9.06002 9.28613 9.06002L9.57708 8.91857L9.87207 9.09638C9.96904 9.27418 10.1186 9.21357 10.1186 9.21357C10.1954 9.25801 10.2115 9.36307 10.2115 9.36307C10.2883 9.26609 10.2034 9.16909 10.2034 9.16909C10.2155 8.92663 9.9246 9.01959 9.9246 9.01959L9.69427 8.90645L10.1024 8.88623C10.2964 8.96706 10.357 8.82966 10.357 8.82966C10.3974 8.80944 10.551 8.83774 10.551 8.83774C10.5063 8.66806 10.3285 8.72463 10.3285 8.72463Z" fill="#464655"/>
</svg>
