<svg width="14" height="14" viewBox="0 0 14 14" fill="none" xmlns="http://www.w3.org/2000/svg">
<path d="M11 13.667H2.99998C1.53331 13.667 0.333313 12.467 0.333313 11.0003V4.33366C0.333313 2.86699 1.53331 1.66699 2.99998 1.66699H11C12.4666 1.66699 13.6666 2.86699 13.6666 4.33366V11.0003C13.6666 12.467 12.4666 13.667 11 13.667Z" stroke="black" stroke-width="0.666667" stroke-miterlimit="10" stroke-linecap="round" stroke-linejoin="round"/>
<path d="M10.3333 0.333618V3.00028" stroke="black" stroke-width="0.666667" stroke-miterlimit="10" stroke-linecap="round" stroke-linejoin="round"/>
<path d="M3.66663 0.333618V3.00028" stroke="black" stroke-width="0.666667" stroke-miterlimit="10" stroke-linecap="round" stroke-linejoin="round"/>
<path d="M3.66667 7.00033C4.03486 7.00033 4.33333 6.70185 4.33333 6.33366C4.33333 5.96547 4.03486 5.66699 3.66667 5.66699C3.29848 5.66699 3 5.96547 3 6.33366C3 6.70185 3.29848 7.00033 3.66667 7.00033Z" fill="black"/>
<path d="M10.3334 6.99996C10.7015 6.99996 11 6.70148 11 6.33329C11 5.9651 10.7015 5.66663 10.3334 5.66663C9.96516 5.66663 9.66669 5.9651 9.66669 6.33329C9.66669 6.70148 9.96516 6.99996 10.3334 6.99996Z" fill="black"/>
<path d="M6.99998 6.99996C7.36817 6.99996 7.66665 6.70148 7.66665 6.33329C7.66665 5.9651 7.36817 5.66663 6.99998 5.66663C6.63179 5.66663 6.33331 5.9651 6.33331 6.33329C6.33331 6.70148 6.63179 6.99996 6.99998 6.99996Z" fill="black"/>
<path d="M3.66667 10.3333C4.03486 10.3333 4.33333 10.0349 4.33333 9.66667C4.33333 9.29848 4.03486 9 3.66667 9C3.29848 9 3 9.29848 3 9.66667C3 10.0349 3.29848 10.3333 3.66667 10.3333Z" fill="black"/>
<path d="M10.3334 10.3333C10.7015 10.3333 11 10.0349 11 9.66667C11 9.29848 10.7015 9 10.3334 9C9.96516 9 9.66669 9.29848 9.66669 9.66667C9.66669 10.0349 9.96516 10.3333 10.3334 10.3333Z" fill="black"/>
<path d="M6.99998 10.3333C7.36817 10.3333 7.66665 10.0349 7.66665 9.66667C7.66665 9.29848 7.36817 9 6.99998 9C6.63179 9 6.33331 9.29848 6.33331 9.66667C6.33331 10.0349 6.63179 10.3333 6.99998 10.3333Z" fill="black"/>
</svg>
