<svg width="18" height="12" viewBox="0 0 18 12" fill="none" xmlns="http://www.w3.org/2000/svg">
<path fill-rule="evenodd" clip-rule="evenodd" d="M0.824951 2.25001C0.824951 1.04879 1.79873 0.0750122 2.99995 0.0750122H15C16.2012 0.0750122 17.175 1.04879 17.175 2.25001V3.75001V9.75001C17.175 10.9512 16.2012 11.925 15 11.925H2.99995C1.79873 11.925 0.824951 10.9512 0.824951 9.75001V3.75001V2.25001ZM2.99995 1.42501C2.54432 1.42501 2.17495 1.79438 2.17495 2.25001V3.07501H15.825V2.25001C15.825 1.79438 15.4556 1.42501 15 1.42501H2.99995ZM15.825 4.42501H2.17495V9.75001C2.17495 10.2056 2.54432 10.575 2.99995 10.575H15C15.4556 10.575 15.825 10.2056 15.825 9.75001V4.42501ZM9.82495 8.25001C9.82495 7.87722 10.1272 7.57501 10.5 7.57501H13.5C13.8727 7.57501 14.175 7.87722 14.175 8.25001C14.175 8.6228 13.8727 8.92501 13.5 8.92501H10.5C10.1272 8.92501 9.82495 8.6228 9.82495 8.25001Z" fill="black" fill-opacity="0.7"/>
</svg>
