<svg width="18" height="18" viewBox="0 0 18 18" fill="none" xmlns="http://www.w3.org/2000/svg">
<circle cx="9" cy="9" r="6.75" stroke="black" stroke-opacity="0.7" stroke-width="1.8"/>
<path d="M7.84427 7.45584C7.84427 7.01026 8.18702 6.73117 8.65218 6.6773V8.24907C8.60322 8.23928 8.55915 8.22459 8.51508 8.2099C8.0695 8.063 7.84427 7.80839 7.84427 7.45584ZM10.2925 10.5112C10.2925 10.9911 9.92526 11.3094 9.40624 11.3534V9.66415C9.44051 9.67394 9.47479 9.68374 9.50417 9.68863C10.0526 9.84042 10.2925 10.1097 10.2925 10.5112ZM9.41603 13.0329L9.41114 12.4111C10.7528 12.2838 11.6048 11.5444 11.6048 10.379C11.6048 9.19409 10.8066 8.69465 9.82244 8.4841L9.40624 8.39596V6.6871C9.92526 6.77034 10.2142 7.16205 10.2288 7.55377H11.4823C11.4628 6.53531 10.6646 5.76167 9.42582 5.62946V4.99292H8.6326V5.62456C7.44765 5.73229 6.51732 6.38352 6.51732 7.55867C6.51732 8.67017 7.32034 9.23816 8.23109 9.43891L8.65218 9.53195V11.3534C8.02543 11.2702 7.69737 10.8932 7.67289 10.4427H6.39001C6.39981 11.3485 7.00697 12.3033 8.6277 12.4209L8.6228 13.0329H9.41603Z" fill="black" fill-opacity="0.7"/>
</svg>
