<svg width="12" height="12" viewBox="0 0 12 12" fill="none" xmlns="http://www.w3.org/2000/svg">
<path d="M1.875 1.125L10.875 10.125" stroke="#595959" stroke-width="1.125" stroke-linecap="round" stroke-linejoin="round"/>
<path fill-rule="evenodd" clip-rule="evenodd" d="M2.43987 3.98537C2.2957 3.8412 2.06209 3.83805 1.92165 3.98585C1.45679 4.47507 1.02589 5.05355 0.639124 5.71657C0.536959 5.89171 0.536959 6.10828 0.639124 6.28343C2.01857 8.64819 3.95953 9.9375 6 9.9375C6.49415 9.9375 6.98247 9.86188 7.45839 9.71369C7.71133 9.63492 7.77286 9.31836 7.58553 9.13102L7.25924 8.80474C7.16125 8.70674 7.01753 8.67226 6.88289 8.70509C6.58717 8.7772 6.29176 8.8125 6 8.8125C4.59762 8.8125 3.11076 7.99692 1.91137 6.19847C1.83124 6.07833 1.83115 5.92181 1.91127 5.80167C2.16399 5.42272 2.42947 5.0874 2.70423 4.79415C2.84848 4.64019 2.85243 4.39792 2.70324 4.24873L2.43987 3.98537ZM4.27901 5.8245C4.08033 5.62582 3.75 5.71903 3.75 6C3.75 7.24264 4.75736 8.25 6 8.25C6.28097 8.25 6.37418 7.91967 6.1755 7.72099L4.27901 5.8245ZM7.85457 7.27437C7.73594 7.44668 7.49254 7.44704 7.34462 7.29912L4.70088 4.65538C4.55296 4.50746 4.55332 4.26406 4.72563 4.14543C5.08791 3.89601 5.5269 3.75 6 3.75C7.24264 3.75 8.25 4.75736 8.25 6C8.25 6.4731 8.10399 6.91209 7.85457 7.27437ZM8.5155 8.47001C8.34588 8.30039 8.37725 8.01735 8.5673 7.87099C9.1037 7.4579 9.61831 6.90373 10.0887 6.19837C10.1688 6.07823 10.1688 5.92166 10.0886 5.80153C8.88923 4.00308 7.40238 3.1875 6 3.1875C5.38181 3.1875 4.7472 3.34598 4.12804 3.67728C3.9747 3.75932 3.78405 3.73855 3.66107 3.61558L3.37795 3.33246C3.21168 3.16619 3.23748 2.88882 3.44117 2.77134C4.25037 2.30458 5.11584 2.0625 6 2.0625C8.04047 2.0625 9.98143 3.35181 11.3609 5.71657C11.463 5.89171 11.463 6.10829 11.3609 6.28343C10.7529 7.3257 10.0358 8.15905 9.24922 8.76517C9.10537 8.87602 8.90268 8.85719 8.77427 8.72877L8.5155 8.47001Z" fill="#595959"/>
</svg>
