<svg width="16" height="13" viewBox="0 0 16 13" fill="none" xmlns="http://www.w3.org/2000/svg">
<g clip-path="url(#clip0)">
<path fill-rule="evenodd" clip-rule="evenodd" d="M0.475985 1.18762C0.675982 0.900224 1.06645 0.833164 1.35216 1.03434L7.31398 5.2304L13.2758 1.03434C13.5615 0.833164 13.952 0.900224 14.152 1.18762C14.352 1.47503 14.2853 1.86781 13.9996 2.06899L7.6854 6.5237C7.46636 6.67698 7.18065 6.67698 6.96161 6.5237L0.628363 2.06899C0.342653 1.86781 0.275988 1.47503 0.475985 1.18762Z" fill="black" fill-opacity="0.7"/>
<path d="M15.4282 8.66989C15.4758 8.66989 15.5235 8.70821 15.5235 8.76569V12.3774C15.5235 12.4253 15.4854 12.4732 15.4282 12.4732H8.56165C8.51404 12.4732 8.46642 12.4348 8.46642 12.3774V8.76569C8.46642 8.71779 8.50451 8.66989 8.56165 8.66989H15.4282ZM15.4282 8.19089H8.56165C8.24737 8.19089 7.99023 8.44955 7.99023 8.76569V12.3774C7.99023 12.6935 8.24737 12.9522 8.56165 12.9522H15.4282C15.7425 12.9522 15.9996 12.6935 15.9996 12.3774V8.76569C15.9996 8.44955 15.7425 8.19089 15.4282 8.19089Z" fill="black" fill-opacity="0.7"/>
<path d="M6.90435 11.9174C6.77102 11.9174 6.66626 11.812 6.66626 11.6779V8.37279C6.66626 7.63513 7.25673 7.04117 7.99005 7.04117H14.3709C14.5042 7.04117 14.609 7.14655 14.609 7.28067C14.609 7.41479 14.5042 7.52017 14.3709 7.52017H7.99005C7.52339 7.52017 7.14244 7.90337 7.14244 8.37279V11.6779C7.14244 11.812 7.02816 11.9174 6.90435 11.9174Z" fill="black" fill-opacity="0.7"/>
<path d="M11.5808 10.0015C11.5808 9.83868 11.7046 9.7333 11.876 9.71413V10.2889C11.857 10.2889 11.8379 10.2794 11.8284 10.2794C11.657 10.2219 11.5808 10.1357 11.5808 10.0015ZM12.4665 11.1224C12.4665 11.2948 12.3332 11.4098 12.1427 11.429V10.8158C12.1522 10.8158 12.1713 10.8254 12.1808 10.8254C12.3808 10.8733 12.4665 10.9691 12.4665 11.1224ZM12.1522 12.0421V11.8122C12.6379 11.7643 12.9522 11.496 12.9522 11.0745C12.9522 10.6434 12.6665 10.4614 12.3046 10.3847L12.1522 10.356V9.73329C12.3427 9.76203 12.4475 9.90574 12.4475 10.0494H12.9046C12.8951 9.67581 12.6094 9.39799 12.1618 9.35009V9.10101H11.876V9.33093C11.4475 9.36925 11.1046 9.60875 11.1046 10.0399C11.1046 10.4422 11.3999 10.653 11.7237 10.7296L11.876 10.7679V11.429C11.6475 11.4002 11.5332 11.2565 11.5237 11.0937H11.0475C11.0475 11.429 11.2761 11.7738 11.857 11.8122V12.0325H12.1522V12.0421Z" fill="black" fill-opacity="0.7"/>
<path fill-rule="evenodd" clip-rule="evenodd" d="M5.17135 10.7105H1.99997C1.63807 10.7105 1.33331 10.4135 1.33331 10.0399V2.01181C1.33331 1.64776 1.62855 1.3412 1.99997 1.3412H12.6474C13.0093 1.3412 13.3141 1.63818 13.3141 2.01181V5.72886C13.3141 6.08332 13.5998 6.3803 13.9617 6.3803H13.9998C14.3522 6.3803 14.6474 6.0929 14.6474 5.72886V2.01181C14.6474 0.910102 13.7522 0 12.6474 0H1.99997C0.895225 0 0 0.900522 0 2.01181V10.0399C0 11.1416 0.895225 12.0517 1.99997 12.0517H5.18088C5.53325 12.0517 5.82849 11.7643 5.82849 11.4002V11.3619C5.81896 10.9979 5.53325 10.7105 5.17135 10.7105Z" fill="black" fill-opacity="0.7"/>
</g>
<defs>
<clipPath id="clip0">
<rect width="15.9998" height="12.9522" fill="white"/>
</clipPath>
</defs>
</svg>
