<svg width="15" height="15" viewBox="0 0 15 15" fill="none" xmlns="http://www.w3.org/2000/svg">
<path d="M13.8766 2.5863H1.12339C0.50294 2.5863 0 3.08924 0 3.70969V11.2906C0 11.911 0.50294 12.4139 1.12339 12.4139H13.8766C14.497 12.4139 15 11.911 15 11.2906V3.70969C15 3.08924 14.4971 2.5863 13.8766 2.5863Z" fill="#82C3D2"/>
<path d="M1.7437 3.76324C1.72029 3.66416 1.71446 3.6276 1.75894 3.58315C1.78062 3.56147 1.78062 3.52635 1.75894 3.50467C1.73726 3.48299 1.70213 3.48299 1.68045 3.50467C1.59045 3.5947 1.61192 3.68812 1.63521 3.78703C1.56426 3.76386 1.49066 3.78105 1.45123 3.8308C1.43166 3.85561 1.39381 3.92522 1.46474 4.03638C1.48123 4.06219 1.51533 4.06977 1.54138 4.05343C1.56725 4.03693 1.57478 4.00257 1.55828 3.97679C1.53168 3.93492 1.53089 3.90911 1.53833 3.89968C1.54712 3.88851 1.57437 3.88263 1.6029 3.89273C1.62133 3.89912 1.66416 3.92124 1.66416 3.98804C1.66416 4.04138 1.63949 4.09028 1.59648 4.12207C1.55339 4.15394 1.49761 4.16294 1.44385 4.14624C1.37746 4.12597 1.33108 4.05603 1.33108 3.97614C1.33108 3.91898 1.34333 3.86121 1.36583 3.81058C1.3694 3.80311 1.45425 3.62736 1.4761 3.56185C1.51932 3.43227 1.4754 3.36712 1.44543 3.3399C1.40532 3.30337 1.3467 3.29426 1.29625 3.31638C1.28857 3.31977 1.28225 3.3247 1.2756 3.32927C1.26895 3.32467 1.26259 3.31977 1.25494 3.31638C1.20452 3.29426 1.14593 3.30334 1.10576 3.3399C1.07579 3.36712 1.03187 3.4323 1.07509 3.56185C1.09694 3.62736 1.18176 3.80311 1.1846 3.80897C1.20783 3.86124 1.22011 3.91901 1.22011 3.97617C1.22011 4.05609 1.17376 4.12599 1.10734 4.14627C1.05338 4.16294 0.997773 4.15406 0.954707 4.1221C0.911699 4.09031 0.887031 4.04144 0.887031 3.98806C0.887031 3.92127 0.929863 3.89918 0.948291 3.89276C0.976914 3.88268 1.00401 3.88851 1.01286 3.89971C1.0203 3.90914 1.01951 3.93495 0.99291 3.97681C0.976416 4.00263 0.983945 4.03702 1.00981 4.05346C1.03589 4.06995 1.07011 4.06224 1.08646 4.0364C1.15738 3.92525 1.11953 3.85567 1.09996 3.83083C1.0605 3.78108 0.986934 3.76386 0.915977 3.78706C0.939297 3.68818 0.960742 3.5947 0.870742 3.5047C0.849062 3.48302 0.813936 3.48302 0.792256 3.5047C0.770576 3.52638 0.770576 3.5615 0.792256 3.58318C0.836699 3.62763 0.830928 3.66416 0.80749 3.76327C0.793398 3.82265 0.775937 3.89672 0.775937 3.98801C0.775937 4.04877 0.797266 4.10683 0.833213 4.15456H0.831426C0.800752 4.15456 0.775908 4.17937 0.775908 4.21008C0.775908 4.24078 0.800723 4.26559 0.831426 4.26559H0.833213C0.797266 4.31329 0.775937 4.37138 0.775937 4.43212C0.775937 4.52341 0.793398 4.59747 0.807432 4.65688C0.83084 4.75599 0.83667 4.79253 0.792197 4.83697C0.770518 4.85865 0.770518 4.89378 0.792197 4.91546C0.803037 4.9263 0.817246 4.93172 0.831455 4.93172C0.845635 4.93172 0.859873 4.9263 0.870713 4.91546C0.960713 4.82543 0.939238 4.73197 0.915947 4.63309C0.986904 4.65618 1.0605 4.63907 1.09993 4.58932C1.1195 4.56451 1.15735 4.4949 1.08643 4.38375C1.06999 4.35794 1.03568 4.35026 1.00979 4.3667C0.983916 4.38319 0.976387 4.41756 0.992881 4.44334C1.01948 4.4852 1.02027 4.51101 1.01283 4.52045C1.00401 4.53149 0.976885 4.53735 0.948262 4.52739C0.929834 4.521 0.887002 4.49888 0.887002 4.43209C0.887002 4.37874 0.91167 4.32984 0.954678 4.29808C0.997773 4.26621 1.0535 4.2571 1.10731 4.27391C1.1737 4.29419 1.22008 4.36412 1.22008 4.44401C1.22008 4.50117 1.20783 4.55894 1.18457 4.61121L0.820967 5.42918C0.791084 5.49641 0.775908 5.56787 0.775908 5.64146C0.775908 5.73618 0.818975 5.82266 0.886768 5.87546C0.819004 5.92825 0.775908 6.01473 0.775908 6.10945C0.775908 6.18307 0.791113 6.25453 0.820967 6.32174L1.18451 7.13968C1.20774 7.19194 1.22002 7.24972 1.22002 7.30687C1.22002 7.3868 1.17367 7.4567 1.10726 7.47697C1.05329 7.49379 0.997686 7.48479 0.954619 7.4528C0.911611 7.42101 0.886943 7.37215 0.886943 7.3188C0.886943 7.252 0.929775 7.22991 0.948203 7.22349C0.976826 7.2135 1.00393 7.21925 1.01277 7.23044C1.02021 7.23987 1.01942 7.26568 0.992822 7.30755C0.976328 7.33336 0.983857 7.36769 1.00973 7.38419C1.0358 7.40068 1.07002 7.39306 1.08637 7.36714C1.15729 7.25599 1.11944 7.1864 1.09987 7.16156C1.06041 7.11179 0.986846 7.09468 0.915889 7.11779C0.939209 7.01891 0.960654 6.92543 0.870654 6.83543C0.848975 6.81375 0.813848 6.81375 0.792168 6.83543C0.770488 6.85711 0.770488 6.89224 0.792168 6.91391C0.836611 6.95836 0.83084 6.99489 0.807402 7.094C0.793369 7.15336 0.775908 7.22742 0.775908 7.31871C0.775908 7.37944 0.797236 7.43754 0.833184 7.48526H0.831396C0.800723 7.48526 0.775879 7.51008 0.775879 7.54078C0.775879 7.57145 0.800693 7.5963 0.831396 7.5963H0.833184C0.797236 7.64402 0.775908 7.70209 0.775908 7.76285C0.775908 7.85414 0.793369 7.9282 0.807402 7.98762C0.83081 8.08673 0.836641 8.12326 0.792168 8.1677C0.770488 8.18938 0.770488 8.22451 0.792168 8.24619C0.803008 8.25703 0.817217 8.26245 0.831426 8.26245C0.845605 8.26245 0.859844 8.25703 0.870684 8.24619C0.960684 8.15616 0.939209 8.0627 0.915918 7.96383C0.986875 7.98691 1.06047 7.9698 1.0999 7.92006C1.11947 7.89524 1.15732 7.82563 1.0864 7.71448C1.06996 7.68867 1.03565 7.68099 1.00976 7.69743C0.983887 7.71392 0.976357 7.74829 0.992852 7.77407C1.01945 7.81594 1.02024 7.84175 1.0128 7.85118C1.00398 7.86234 0.976855 7.86817 0.948232 7.85812C0.929805 7.85174 0.886973 7.82962 0.886973 7.76282C0.886973 7.70947 0.911641 7.66057 0.954648 7.62882C0.997744 7.59694 1.05347 7.58783 1.10729 7.60465C1.17367 7.62492 1.22005 7.69485 1.22005 7.77474C1.22005 7.8319 1.2078 7.88968 1.18454 7.94194L0.820967 8.76003C0.791084 8.82723 0.775908 8.89872 0.775908 8.97231C0.775908 9.06703 0.818975 9.15351 0.886768 9.20631C0.819004 9.25907 0.775908 9.34558 0.775908 9.4403C0.775908 9.51392 0.791113 9.58538 0.820967 9.65259L1.18451 10.4705C1.20774 10.5228 1.22002 10.5806 1.22002 10.6377C1.22002 10.7176 1.17367 10.7876 1.10726 10.8078C1.05329 10.8246 0.997686 10.8155 0.954619 10.7837C0.911611 10.7519 0.886943 10.703 0.886943 10.6496C0.886943 10.5828 0.929775 10.5608 0.948203 10.5543C0.976826 10.5444 1.00393 10.5501 1.01277 10.5613C1.02021 10.5707 1.01942 10.5965 0.992822 10.6384C0.976328 10.6642 0.983857 10.6986 1.00973 10.715C1.0358 10.7315 1.07002 10.7239 1.08637 10.698C1.15729 10.5868 1.11944 10.5173 1.09987 10.4924C1.06041 10.4425 0.986846 10.4255 0.915889 10.4486C0.939209 10.3498 0.960654 10.2563 0.870654 10.1663C0.848975 10.1446 0.813848 10.1446 0.792168 10.1663C0.770488 10.188 0.770488 10.2231 0.792168 10.2448C0.836611 10.2892 0.83084 10.3257 0.807402 10.4249C0.793369 10.4842 0.775908 10.5582 0.775908 10.6495C0.775908 10.7365 0.817598 10.8194 0.887295 10.8716C0.817598 10.9238 0.775908 11.0067 0.775908 11.0937C0.775908 11.185 0.793369 11.259 0.807402 11.3184C0.83081 11.4175 0.836641 11.4541 0.792168 11.4985C0.770488 11.5202 0.770488 11.5554 0.792168 11.577C0.803008 11.5879 0.817217 11.5933 0.831426 11.5933C0.845605 11.5933 0.859844 11.5879 0.870684 11.577C0.960684 11.487 0.939209 11.3935 0.915918 11.2946C0.986875 11.3177 1.06047 11.3006 1.0999 11.2508C1.11947 11.226 1.15732 11.1564 1.0864 11.0453C1.06996 11.0195 1.03565 11.0119 1.00976 11.0282C0.983887 11.0447 0.976357 11.0791 0.992852 11.1049C1.01945 11.1467 1.02024 11.1725 1.0128 11.182C1.00398 11.1931 0.976855 11.1989 0.948232 11.1889C0.929805 11.1825 0.886973 11.1604 0.886973 11.0936C0.886973 11.0403 0.911641 10.9914 0.954648 10.9596C0.997744 10.9277 1.05347 10.9187 1.10729 10.9354C1.17367 10.9557 1.22005 11.0256 1.22005 11.1055C1.22005 11.1627 1.2078 11.2204 1.1853 11.2711C1.18173 11.2785 1.09688 11.4543 1.07503 11.5198C1.03182 11.6494 1.07573 11.7145 1.1057 11.7417C1.13134 11.7651 1.16436 11.7773 1.19811 11.7773C1.21724 11.7773 1.23663 11.7733 1.25491 11.7653C1.26259 11.7619 1.26892 11.757 1.27557 11.7524C1.28222 11.757 1.28857 11.7619 1.29622 11.7653C1.31447 11.7733 1.33393 11.7773 1.35303 11.7773C1.38669 11.7773 1.41977 11.7651 1.44543 11.7417C1.4754 11.7145 1.51932 11.6493 1.4761 11.5198C1.45425 11.4543 1.36943 11.2786 1.36659 11.2727C1.34336 11.2204 1.33108 11.1626 1.33108 11.1055C1.33108 11.0256 1.37743 10.9557 1.44385 10.9354C1.49784 10.9187 1.55342 10.9277 1.59648 10.9595C1.63949 10.9913 1.66416 11.0402 1.66416 11.0936C1.66416 11.1604 1.62133 11.1825 1.6029 11.1889C1.57439 11.1989 1.54709 11.1931 1.53833 11.1819C1.53089 11.1725 1.53168 11.1467 1.55828 11.1048C1.57478 11.079 1.56725 11.0447 1.54138 11.0282C1.51545 11.0119 1.48126 11.0195 1.46474 11.0452C1.39381 11.1564 1.43166 11.226 1.45123 11.2508C1.49069 11.3006 1.56426 11.3177 1.63521 11.2946C1.61189 11.3935 1.59045 11.487 1.68045 11.577C1.69129 11.5878 1.7055 11.5932 1.71971 11.5932C1.73392 11.5932 1.74813 11.5878 1.75896 11.577C1.78064 11.5553 1.78064 11.5201 1.75896 11.4985C1.71452 11.4541 1.72029 11.4175 1.74373 11.3184C1.75776 11.259 1.77522 11.1849 1.77522 11.0936C1.77522 11.0066 1.73354 10.9238 1.66387 10.8716C1.73354 10.8194 1.77522 10.7365 1.77522 10.6495C1.77522 10.5582 1.75776 10.4841 1.74373 10.4247C1.72032 10.3257 1.71449 10.2891 1.75896 10.2446C1.78064 10.223 1.78064 10.1878 1.75896 10.1662C1.73729 10.1445 1.70216 10.1445 1.68048 10.1662C1.59048 10.2562 1.61195 10.3496 1.63524 10.4485C1.56429 10.4254 1.49069 10.4424 1.45126 10.4923C1.43169 10.5171 1.39384 10.5867 1.46477 10.6979C1.48126 10.7237 1.51536 10.7313 1.54141 10.7149C1.56728 10.6984 1.5748 10.6641 1.55831 10.6383C1.53171 10.5964 1.53092 10.5706 1.53836 10.5612C1.54715 10.55 1.57439 10.5443 1.60293 10.5542C1.62136 10.5606 1.66419 10.5827 1.66419 10.6495C1.66419 10.7029 1.63952 10.7518 1.59651 10.7835C1.55342 10.8154 1.49764 10.8245 1.44388 10.8077C1.37749 10.7874 1.33111 10.7175 1.33111 10.6376C1.33111 10.5805 1.34336 10.5227 1.36662 10.4704L1.73017 9.65247C1.76005 9.58526 1.77522 9.51378 1.77522 9.44018C1.77522 9.34547 1.73216 9.25898 1.66437 9.20619C1.73216 9.1534 1.77522 9.06691 1.77522 8.9722C1.77522 8.89857 1.76002 8.82712 1.73017 8.75991L1.36662 7.94197C1.34339 7.88971 1.33111 7.83193 1.33111 7.77477C1.33111 7.69485 1.37746 7.62495 1.44388 7.60468C1.49787 7.58801 1.55345 7.59697 1.59651 7.62885C1.63952 7.66063 1.66419 7.7095 1.66419 7.76285C1.66419 7.82965 1.62136 7.85174 1.60293 7.85815C1.57442 7.86823 1.54712 7.8624 1.53836 7.85121C1.53092 7.84178 1.53171 7.81597 1.55831 7.7741C1.5748 7.74829 1.56728 7.71392 1.54141 7.69746C1.51548 7.6812 1.48129 7.68879 1.46477 7.71451C1.39384 7.82566 1.43169 7.89524 1.45126 7.92009C1.49072 7.96983 1.56429 7.98697 1.63524 7.96386C1.61192 8.06273 1.59048 8.15622 1.68048 8.24622C1.69132 8.25706 1.70553 8.26248 1.71974 8.26248C1.73395 8.26248 1.74815 8.25706 1.75899 8.24622C1.78067 8.22454 1.78067 8.18938 1.75899 8.16773C1.71455 8.12329 1.72032 8.08676 1.74376 7.98765C1.75779 7.92823 1.77525 7.85417 1.77525 7.76288C1.77525 7.70212 1.75393 7.64405 1.71798 7.59633H1.71977C1.75044 7.59633 1.77528 7.57151 1.77528 7.54081C1.77528 7.51014 1.75047 7.48529 1.71977 7.48529H1.71798C1.75393 7.43757 1.77525 7.37953 1.77525 7.31874C1.77525 7.22745 1.75779 7.15339 1.74376 7.09397C1.72035 6.99486 1.71452 6.95833 1.75899 6.91389C1.78067 6.89221 1.78067 6.85708 1.75899 6.8354C1.73731 6.81372 1.70219 6.81372 1.68051 6.8354C1.59051 6.92543 1.61198 7.01889 1.63527 7.11776C1.56432 7.09468 1.49072 7.11179 1.45129 7.16153C1.43172 7.18635 1.39387 7.25596 1.46479 7.36711C1.48129 7.39292 1.51539 7.40042 1.54144 7.38416C1.5673 7.36766 1.57483 7.3333 1.55834 7.30752C1.53174 7.26565 1.53095 7.23984 1.53839 7.23041C1.54718 7.21925 1.57442 7.2135 1.60296 7.22347C1.62139 7.22985 1.66422 7.25197 1.66422 7.31877C1.66422 7.37212 1.63955 7.42101 1.59654 7.45277C1.55345 7.48465 1.49767 7.49364 1.44391 7.47694C1.37752 7.45667 1.33114 7.38674 1.33114 7.30684C1.33114 7.24969 1.34339 7.19191 1.36665 7.13965L1.7302 6.32171C1.76008 6.2545 1.77525 6.18302 1.77525 6.10942C1.77525 6.01471 1.73219 5.92822 1.66439 5.87543C1.73219 5.82266 1.77525 5.73615 1.77525 5.64143C1.77525 5.56781 1.76005 5.49636 1.7302 5.42915L1.36665 4.61121C1.34342 4.55894 1.33114 4.50117 1.33114 4.44401C1.33114 4.36409 1.37749 4.29419 1.44391 4.27391C1.4979 4.25724 1.55348 4.26621 1.59654 4.29808C1.63955 4.32987 1.66422 4.37874 1.66422 4.43209C1.66422 4.49888 1.62139 4.52097 1.60296 4.52739C1.57445 4.53738 1.54715 4.53152 1.53839 4.52045C1.53095 4.51101 1.53174 4.4852 1.55834 4.44334C1.57483 4.41753 1.5673 4.38316 1.54144 4.3667C1.51551 4.35044 1.48132 4.35791 1.46479 4.38372C1.39387 4.49487 1.43172 4.56445 1.45129 4.5893C1.49075 4.63904 1.56432 4.65618 1.63527 4.63306C1.61195 4.73194 1.59051 4.82543 1.68051 4.91543C1.69135 4.92627 1.70556 4.93169 1.71977 4.93169C1.73395 4.93169 1.74818 4.92627 1.75902 4.91543C1.7807 4.89375 1.7807 4.85862 1.75902 4.83694C1.71458 4.7925 1.72035 4.75597 1.74379 4.65685C1.75782 4.59744 1.77528 4.52338 1.77528 4.43209C1.77528 4.37133 1.75396 4.31326 1.71801 4.26554H1.71979C1.75047 4.26554 1.77531 4.24072 1.77531 4.21002C1.77531 4.17931 1.7505 4.1545 1.71979 4.1545H1.71801C1.75396 4.10678 1.77528 4.04874 1.77528 3.98795C1.77517 3.89672 1.7577 3.82265 1.7437 3.76324ZM1.18032 3.52664C1.16061 3.46746 1.16749 3.43374 1.1805 3.4219C1.18899 3.41387 1.20188 3.4142 1.21006 3.41789C1.22008 3.42231 1.22008 3.42937 1.22008 3.43286C1.22008 3.46353 1.24489 3.48838 1.2756 3.48838C1.30627 3.48838 1.33111 3.46356 1.33111 3.43286C1.33111 3.4294 1.33111 3.42234 1.34113 3.41789C1.34916 3.4142 1.36196 3.41387 1.37069 3.4219C1.38373 3.43374 1.39062 3.46746 1.37087 3.52664C1.35651 3.56956 1.30457 3.6813 1.27563 3.74194C1.24727 3.6827 1.19477 3.56985 1.18032 3.52664ZM1.27557 5.81724C1.2915 5.8389 1.30952 5.85905 1.33144 5.87546C1.30952 5.89189 1.2915 5.91202 1.27557 5.93367C1.25963 5.91202 1.24161 5.89186 1.2197 5.87546C1.24161 5.85899 1.25963 5.8389 1.27557 5.81724ZM1.27557 9.14801C1.2915 9.16966 1.30952 9.18981 1.33144 9.20622C1.30952 9.22266 1.2915 9.24278 1.27557 9.26443C1.25963 9.24278 1.24161 9.22263 1.2197 9.20622C1.24161 9.18981 1.25963 9.16974 1.27557 9.14801ZM1.37081 11.5551C1.39053 11.6143 1.38364 11.648 1.37063 11.6598C1.3619 11.6677 1.3491 11.6674 1.34107 11.6638C1.33105 11.6594 1.33105 11.6524 1.33105 11.6489C1.33105 11.6182 1.30624 11.5934 1.27554 11.5934C1.24483 11.5934 1.22002 11.6182 1.22002 11.6489C1.22002 11.6523 1.22002 11.6594 1.21 11.6638C1.20186 11.6674 1.18896 11.6678 1.18044 11.6598C1.1674 11.648 1.16055 11.6143 1.18026 11.5551C1.19462 11.5122 1.24656 11.4004 1.27551 11.3398C1.30384 11.399 1.35634 11.5119 1.37081 11.5551ZM1.33091 10.8717C1.3099 10.888 1.29127 10.9076 1.27557 10.9297C1.25989 10.9076 1.24123 10.888 1.22022 10.8717C1.24123 10.8553 1.25986 10.8357 1.27557 10.8136C1.29124 10.8357 1.30984 10.8553 1.33091 10.8717ZM1.62862 9.60741L1.27554 10.4018L0.922451 9.60741C0.899219 9.55515 0.886943 9.49737 0.886943 9.44021C0.886943 9.36029 0.933291 9.29036 0.999707 9.27012C1.05364 9.25342 1.10934 9.26241 1.15234 9.29429C1.19535 9.32607 1.22002 9.37494 1.22002 9.42832C1.22002 9.49512 1.17719 9.51721 1.15876 9.52362C1.13014 9.53361 1.10292 9.52787 1.09419 9.51668C1.08675 9.50724 1.08754 9.48143 1.11414 9.43957C1.13063 9.41376 1.12311 9.37942 1.09724 9.36293C1.07131 9.34667 1.03712 9.35426 1.0206 9.37998C0.949697 9.49113 0.98752 9.56071 1.00709 9.58556C1.04729 9.6363 1.1229 9.65376 1.19521 9.62848C1.20344 9.6256 1.21179 9.62209 1.22002 9.61787V9.75826C1.22002 9.75823 1.21993 9.75817 1.21993 9.75817C1.21826 9.72893 1.19406 9.70588 1.16453 9.70588C1.13386 9.70588 1.10901 9.73069 1.10901 9.76139C1.10901 9.79761 1.13433 9.86042 1.22005 9.87987V9.98344C1.22005 10.0141 1.24486 10.039 1.27557 10.039C1.30624 10.039 1.33108 10.0141 1.33108 9.98344V9.87987C1.41678 9.86042 1.44212 9.79761 1.44212 9.76139C1.44212 9.73072 1.41736 9.70406 1.38672 9.70406C1.35604 9.70406 1.33132 9.72706 1.33132 9.75773C1.33129 9.75782 1.33111 9.75797 1.33108 9.75806V9.61793C1.33932 9.62212 1.34767 9.62566 1.3559 9.62853C1.4282 9.65379 1.50379 9.63633 1.54401 9.58561C1.56358 9.5608 1.60144 9.49119 1.53051 9.38004C1.51401 9.35423 1.47977 9.34664 1.45387 9.36299C1.428 9.37948 1.42047 9.41385 1.43696 9.43963C1.46356 9.48149 1.46436 9.5073 1.45691 9.51674C1.44813 9.5279 1.42094 9.53364 1.39234 9.52368C1.37392 9.51729 1.33108 9.49517 1.33108 9.42838C1.33108 9.37503 1.35575 9.32613 1.39876 9.29434C1.44186 9.26247 1.49764 9.25336 1.5514 9.27017C1.61778 9.29045 1.66416 9.36038 1.66416 9.44027C1.66416 9.49737 1.65191 9.5552 1.62862 9.60741ZM1.62862 8.80509C1.65186 8.85735 1.66413 8.91513 1.66413 8.97228C1.66413 9.05221 1.61778 9.12211 1.55137 9.14238C1.49749 9.1592 1.44174 9.15009 1.39873 9.11821C1.35572 9.08642 1.33105 9.03756 1.33105 8.98421C1.33105 8.91741 1.37389 8.89532 1.39231 8.88891C1.42088 8.87891 1.44813 8.88466 1.45688 8.89585C1.46433 8.90528 1.46354 8.93109 1.43693 8.97296C1.42044 8.99877 1.42797 9.0331 1.45384 9.0496C1.47991 9.06609 1.51413 9.05848 1.53048 9.03255C1.60141 8.92139 1.56355 8.85182 1.54398 8.82697C1.50376 8.77623 1.42817 8.75897 1.35587 8.78405C1.34764 8.78692 1.33929 8.79047 1.33105 8.79463V8.65421L1.33114 8.65438C1.33281 8.68353 1.35701 8.70665 1.38654 8.70665C1.41722 8.70665 1.44206 8.68183 1.44206 8.65113C1.44206 8.61492 1.41675 8.55211 1.33103 8.53266V8.42909C1.33103 8.39842 1.30621 8.37357 1.27551 8.37357C1.24483 8.37357 1.21999 8.39839 1.21999 8.42909V8.53266C1.1343 8.55211 1.10895 8.61492 1.10895 8.65113C1.10895 8.6818 1.13371 8.70847 1.16436 8.70847C1.19503 8.70847 1.21976 8.68547 1.21976 8.65479C1.21979 8.65471 1.21996 8.65456 1.21996 8.65456L1.21999 8.7946C1.21176 8.79044 1.20341 8.78686 1.19518 8.78402C1.12287 8.75897 1.04726 8.7762 1.00706 8.82694C0.98749 8.85176 0.949639 8.92137 1.02057 9.03252C1.03706 9.05833 1.07131 9.06583 1.09721 9.04957C1.12308 9.03307 1.13061 8.99871 1.11411 8.97293C1.08751 8.93106 1.08672 8.90525 1.09416 8.89582C1.10289 8.88466 1.13011 8.87891 1.15873 8.88888C1.17716 8.89526 1.21999 8.91738 1.21999 8.98418C1.21999 9.03753 1.19532 9.08642 1.15231 9.11818C1.10922 9.15006 1.05355 9.15917 0.999678 9.14235C0.933291 9.12208 0.886914 9.05215 0.886914 8.97225C0.886914 8.9151 0.89916 8.85732 0.922422 8.80506L1.27551 8.01064L1.62862 8.80509ZM1.33091 7.54087C1.3099 7.55722 1.29127 7.57679 1.27557 7.5989C1.25989 7.57679 1.24123 7.55724 1.22022 7.54087C1.24123 7.52452 1.25986 7.50495 1.27557 7.48283C1.29124 7.50495 1.30984 7.52449 1.33091 7.54087ZM1.62862 6.27665L1.27554 7.07106L0.922451 6.27665C0.899219 6.22438 0.886943 6.16661 0.886943 6.10945C0.886943 6.02953 0.933291 5.95963 0.999707 5.93935C1.05364 5.92265 1.10934 5.93165 1.15234 5.96352C1.19535 5.99531 1.22002 6.04418 1.22002 6.09756C1.22002 6.16435 1.17719 6.18644 1.15876 6.19286C1.13014 6.20294 1.10292 6.19711 1.09419 6.18592C1.08675 6.17648 1.08754 6.15067 1.11414 6.10881C1.13063 6.083 1.12311 6.04866 1.09724 6.03217C1.07131 6.01579 1.03712 6.02338 1.0206 6.04916C0.949697 6.16031 0.98752 6.22989 1.00709 6.25473C1.04729 6.30548 1.1229 6.32282 1.19521 6.29765C1.20344 6.29478 1.21179 6.29127 1.22002 6.28708V6.42747L1.21993 6.42729C1.21826 6.39814 1.19406 6.37503 1.16453 6.37503C1.13386 6.37503 1.10901 6.39984 1.10901 6.43055C1.10901 6.46676 1.13433 6.52957 1.22005 6.54902V6.65259C1.22005 6.68326 1.24486 6.7081 1.27557 6.7081C1.30624 6.7081 1.33108 6.68329 1.33108 6.65259V6.54902C1.41678 6.52957 1.44212 6.46676 1.44212 6.43055C1.44212 6.39987 1.41736 6.37318 1.38672 6.37318C1.35604 6.37318 1.33132 6.39618 1.33132 6.42685C1.33129 6.42694 1.33111 6.42709 1.33111 6.42709L1.33108 6.28705C1.33932 6.29124 1.34767 6.29478 1.3559 6.29763C1.4282 6.32276 1.50379 6.30545 1.54401 6.25471C1.56358 6.22989 1.60144 6.16028 1.53051 6.04913C1.51401 6.0232 1.47977 6.01564 1.45387 6.03214C1.428 6.04863 1.42047 6.083 1.43696 6.10878C1.46356 6.15064 1.46436 6.17645 1.45691 6.18589C1.44813 6.19705 1.42094 6.20294 1.39234 6.19283C1.37392 6.18644 1.33108 6.16432 1.33108 6.09753C1.33108 6.04418 1.35575 5.99528 1.39876 5.96349C1.44186 5.93162 1.49764 5.92263 1.5514 5.93932C1.61778 5.9596 1.66416 6.02953 1.66416 6.10942C1.66416 6.16658 1.65191 6.22435 1.62862 6.27665ZM1.62862 5.47427C1.65186 5.52653 1.66413 5.58431 1.66413 5.64146C1.66413 5.72139 1.61778 5.79129 1.55137 5.81156C1.49749 5.82838 1.44174 5.81927 1.39873 5.78739C1.35572 5.7556 1.33105 5.70674 1.33105 5.65336C1.33105 5.58656 1.37389 5.56447 1.39231 5.55806C1.42088 5.54806 1.44813 5.55381 1.45688 5.565C1.46433 5.57443 1.46354 5.60024 1.43693 5.64211C1.42044 5.66792 1.42797 5.70228 1.45384 5.71875C1.47991 5.73513 1.51413 5.72763 1.53048 5.70173C1.60141 5.59057 1.56355 5.52099 1.54398 5.49615C1.50376 5.44541 1.42817 5.42806 1.35587 5.45323C1.34764 5.45607 1.33929 5.45962 1.33105 5.46381V5.32342C1.33105 5.32345 1.33114 5.3235 1.33114 5.3235C1.33281 5.35274 1.35701 5.3758 1.38654 5.3758C1.41722 5.3758 1.44206 5.35098 1.44206 5.32028C1.44206 5.28407 1.41675 5.22126 1.33103 5.20181V5.09824C1.33103 5.06757 1.30621 5.04272 1.27551 5.04272C1.24483 5.04272 1.21999 5.06754 1.21999 5.09824V5.20181C1.1343 5.22126 1.10895 5.28407 1.10895 5.32028C1.10895 5.35096 1.13371 5.37764 1.16436 5.37764C1.19503 5.37764 1.21976 5.35465 1.21976 5.32397C1.21979 5.32389 1.21996 5.32374 1.21999 5.32365V5.46378C1.21176 5.45959 1.20341 5.45604 1.19518 5.4532C1.12287 5.42806 1.04726 5.44538 1.00706 5.49612C0.98749 5.52094 0.949639 5.59055 1.02057 5.7017C1.03706 5.72751 1.07131 5.73501 1.09721 5.71872C1.12308 5.70222 1.13061 5.66786 1.11411 5.64208C1.08751 5.60021 1.08672 5.5744 1.09416 5.56497C1.10289 5.55381 1.13011 5.54806 1.15873 5.55803C1.17716 5.56441 1.21999 5.58653 1.21999 5.65333C1.21999 5.70668 1.19532 5.75557 1.15231 5.78736C1.10922 5.81924 1.05355 5.82835 0.999678 5.81153C0.933291 5.79126 0.886914 5.72133 0.886914 5.64143C0.886914 5.58428 0.89916 5.5265 0.922422 5.47424L1.27551 4.67982L1.62862 5.47427ZM1.2202 4.21008C1.2412 4.19373 1.25983 4.17416 1.27554 4.15204C1.29121 4.17416 1.30984 4.1937 1.33088 4.21008C1.30987 4.22642 1.29124 4.24599 1.27554 4.26811C1.25986 4.24594 1.24126 4.22637 1.2202 4.21008Z" fill="#FFE15A"/>
<path d="M7.93206 8.22191C8.66998 8.22191 9.26817 7.62371 9.26817 6.8858C9.26817 6.14788 8.66998 5.54968 7.93206 5.54968C7.19415 5.54968 6.59595 6.14788 6.59595 6.8858C6.59595 7.62371 7.19415 8.22191 7.93206 8.22191Z" fill="#FFE15A"/>
<path d="M8.03211 5.18199C8.03211 5.23733 7.98723 5.28222 7.93189 5.28222C7.87655 5.28222 7.83167 5.23733 7.83167 5.18199C7.83167 5.12665 7.93189 4.88135 7.93189 4.88135C7.93189 4.88135 8.03211 5.12665 8.03211 5.18199Z" fill="#FFE15A"/>
<path d="M7.83167 8.58973C7.83167 8.53438 7.87655 8.4895 7.93189 8.4895C7.98723 8.4895 8.03211 8.53438 8.03211 8.58973C8.03211 8.64507 7.93189 8.89037 7.93189 8.89037C7.93189 8.89037 7.83167 8.6451 7.83167 8.58973Z" fill="#FFE15A"/>
<path d="M9.63563 6.98622C9.58028 6.98622 9.5354 6.94133 9.5354 6.88599C9.5354 6.83065 9.58028 6.78577 9.63563 6.78577C9.69097 6.78577 9.93627 6.88599 9.93627 6.88599C9.93627 6.88599 9.69097 6.98622 9.63563 6.98622Z" fill="#FFE15A"/>
<path d="M6.22838 6.78577C6.28372 6.78577 6.3286 6.83065 6.3286 6.88599C6.3286 6.94133 6.28372 6.98622 6.22838 6.98622C6.17304 6.98622 5.92773 6.88599 5.92773 6.88599C5.92773 6.88599 6.17304 6.78577 6.22838 6.78577Z" fill="#FFE15A"/>
<path d="M9.20771 5.75223C9.16857 5.79137 9.10511 5.79137 9.06598 5.75223C9.02684 5.71309 9.02684 5.64963 9.06598 5.61049C9.10511 5.57138 9.34941 5.46875 9.34941 5.46875C9.34941 5.46875 9.24688 5.71309 9.20771 5.75223Z" fill="#FFE15A"/>
<path d="M6.65648 8.01959C6.69562 7.98045 6.75904 7.98045 6.79821 8.01959C6.83738 8.05873 6.83735 8.12215 6.79821 8.16132C6.75907 8.20049 6.51477 8.30302 6.51477 8.30302C6.51477 8.30302 6.61734 8.05873 6.65648 8.01959Z" fill="#FFE15A"/>
<path d="M9.0661 8.16146C9.02696 8.12232 9.02696 8.05889 9.0661 8.01972C9.10524 7.98055 9.16866 7.98058 9.20783 8.01972C9.247 8.05886 9.34956 8.30316 9.34956 8.30316C9.34956 8.30316 9.10521 8.2006 9.0661 8.16146Z" fill="#FFE15A"/>
<path d="M6.79813 5.61058C6.83727 5.64972 6.83727 5.71314 6.79813 5.75231C6.75899 5.79148 6.69556 5.79145 6.65639 5.75231C6.61722 5.71317 6.51465 5.46887 6.51465 5.46887C6.51465 5.46887 6.75899 5.57147 6.79813 5.61058Z" fill="#FFE15A"/>
<path d="M7.37282 5.27375C7.394 5.3249 7.36972 5.3835 7.31856 5.40468C7.26741 5.42586 7.20881 5.40157 7.18763 5.35042C7.16645 5.29927 7.16516 5.0343 7.16516 5.0343C7.16516 5.0343 7.35164 5.2226 7.37282 5.27375Z" fill="#FFE15A"/>
<path d="M8.49166 8.49845C8.47048 8.44729 8.49477 8.3887 8.54592 8.36752C8.59708 8.34634 8.65567 8.37062 8.67686 8.42178C8.69804 8.47293 8.69933 8.7379 8.69933 8.7379C8.69933 8.7379 8.51282 8.54963 8.49166 8.49845Z" fill="#FFE15A"/>
<path d="M9.54435 6.32642C9.49319 6.3476 9.4346 6.32332 9.41342 6.27217C9.39223 6.22102 9.41652 6.16243 9.46767 6.14124C9.51883 6.12006 9.78376 6.11877 9.78376 6.11877C9.78376 6.11877 9.5955 6.30521 9.54435 6.32642Z" fill="#FFE15A"/>
<path d="M6.31965 7.44515C6.3708 7.42397 6.4294 7.44826 6.45058 7.49941C6.47176 7.55057 6.44747 7.60916 6.39632 7.63035C6.34517 7.65153 6.0802 7.65282 6.0802 7.65282C6.0802 7.65282 6.26849 7.46637 6.31965 7.44515Z" fill="#FFE15A"/>
<path d="M8.6767 5.35002C8.65552 5.40117 8.5969 5.42543 8.54578 5.40428C8.49463 5.3831 8.47038 5.32447 8.49153 5.27335C8.51271 5.2222 8.69914 5.03394 8.69914 5.03394C8.69914 5.03394 8.69788 5.2989 8.6767 5.35002Z" fill="#FFE15A"/>
<path d="M7.1876 8.42164C7.20878 8.37049 7.26741 8.34623 7.31853 8.36738C7.36965 8.38856 7.39394 8.44718 7.37279 8.49831C7.35161 8.54946 7.16516 8.73771 7.16516 8.73771C7.16516 8.73771 7.16642 8.47273 7.1876 8.42164Z" fill="#FFE15A"/>
<path d="M9.46754 7.63033C9.41639 7.60914 9.39213 7.55052 9.41328 7.4994C9.43446 7.44825 9.49308 7.42399 9.5442 7.44514C9.59535 7.46632 9.78361 7.65277 9.78361 7.65277C9.78361 7.65277 9.51869 7.65154 9.46754 7.63033Z" fill="#FFE15A"/>
<path d="M6.3964 6.14122C6.44756 6.1624 6.47181 6.22102 6.45066 6.27214C6.42948 6.3233 6.37086 6.34755 6.31974 6.3264C6.26858 6.30522 6.08032 6.11877 6.08032 6.11877C6.08032 6.11877 6.34531 6.12 6.3964 6.14122Z" fill="#FFE15A"/>
<path d="M7.69811 5.19525C7.70893 5.24954 7.67365 5.3023 7.61936 5.31308C7.56507 5.32389 7.5123 5.28862 7.50152 5.23433C7.49071 5.18005 7.54116 4.91992 7.54116 4.91992C7.54116 4.91992 7.6873 5.14097 7.69811 5.19525Z" fill="#FFE15A"/>
<path d="M8.16625 8.57632C8.15544 8.52203 8.19072 8.46927 8.24501 8.45849C8.2993 8.44768 8.35207 8.48295 8.36285 8.53724C8.37366 8.59153 8.32321 8.85165 8.32321 8.85165C8.32321 8.85165 8.17704 8.63064 8.16625 8.57632Z" fill="#FFE15A"/>
<path d="M9.62271 6.65171C9.56842 6.66252 9.51566 6.62727 9.50488 6.57296C9.49407 6.51867 9.52931 6.46591 9.58363 6.45513C9.63792 6.44432 9.89805 6.49477 9.89805 6.49477C9.89805 6.49477 9.677 6.6409 9.62271 6.65171Z" fill="#FFE15A"/>
<path d="M6.24164 7.11987C6.29593 7.10906 6.34869 7.1443 6.35947 7.19862C6.37028 7.2529 6.33501 7.30566 6.28072 7.31644C6.22643 7.32725 5.96631 7.27681 5.96631 7.27681C5.96631 7.27681 6.18735 7.13068 6.24164 7.11987Z" fill="#FFE15A"/>
<path d="M8.96176 5.52505C8.93103 5.57107 8.86877 5.58344 8.82274 5.55268C8.77671 5.52194 8.76435 5.45969 8.79511 5.41366C8.82585 5.36766 9.04547 5.21936 9.04547 5.21936C9.04547 5.21936 8.99253 5.47899 8.96176 5.52505Z" fill="#FFE15A"/>
<path d="M6.90243 8.24668C6.93316 8.20069 6.99542 8.18829 7.04144 8.21905C7.08747 8.24979 7.09983 8.31204 7.06907 8.35807C7.03834 8.40406 6.81873 8.55236 6.81873 8.55236C6.81873 8.55236 6.8717 8.29277 6.90243 8.24668Z" fill="#FFE15A"/>
<path d="M9.29283 7.91561C9.24681 7.88487 9.23444 7.82262 9.2652 7.77659C9.29594 7.73059 9.35819 7.7182 9.40422 7.74896C9.45024 7.7797 9.59851 7.99931 9.59851 7.99931C9.59851 7.99931 9.33886 7.94634 9.29283 7.91561Z" fill="#FFE15A"/>
<path d="M6.57142 5.85604C6.61745 5.88677 6.62984 5.94903 6.59905 5.99506C6.56832 6.04108 6.50606 6.05345 6.46004 6.02269C6.41402 5.99192 6.26575 5.77234 6.26575 5.77234C6.26575 5.77234 6.52543 5.82531 6.57142 5.85604Z" fill="#FFE15A"/>
<path d="M7.06907 5.41363C7.09981 5.45966 7.08744 5.52189 7.04145 5.55265C6.99542 5.58338 6.93319 5.57102 6.90243 5.52502C6.8717 5.47899 6.81873 5.21936 6.81873 5.21936C6.81873 5.21936 7.03834 5.36766 7.06907 5.41363Z" fill="#FFE15A"/>
<path d="M8.79533 8.35805C8.7646 8.31203 8.77697 8.2498 8.82296 8.21904C8.86898 8.18831 8.93121 8.20067 8.96197 8.24667C8.9927 8.29269 9.04566 8.55231 9.04566 8.55231C9.04566 8.55231 8.82609 8.40407 8.79533 8.35805Z" fill="#FFE15A"/>
<path d="M9.40444 6.02269C9.35844 6.05342 9.29619 6.04106 9.26543 5.99506C9.2347 5.94903 9.24706 5.8868 9.29305 5.85604C9.33905 5.82531 9.59871 5.77234 9.59871 5.77234C9.59871 5.77234 9.45047 5.99195 9.40444 6.02269Z" fill="#FFE15A"/>
<path d="M6.46002 7.74895C6.50602 7.71822 6.56827 7.73058 6.59903 7.77658C6.62977 7.8226 6.6174 7.88483 6.57141 7.91559C6.52538 7.94632 6.26575 7.99929 6.26575 7.99929C6.26575 7.99929 6.41399 7.77971 6.46002 7.74895Z" fill="#FFE15A"/>
<path d="M8.36283 5.23443C8.35202 5.28871 8.29929 5.32399 8.245 5.31318C8.19072 5.30237 8.15544 5.24963 8.16625 5.19534C8.17706 5.14106 8.32319 4.92004 8.32319 4.92004C8.32319 4.92004 8.37361 5.18011 8.36283 5.23443Z" fill="#FFE15A"/>
<path d="M7.50163 8.53724C7.51244 8.48295 7.56518 8.44768 7.61946 8.45849C7.67375 8.4693 7.70902 8.52203 7.69821 8.57632C7.6874 8.63061 7.54127 8.85162 7.54127 8.85162C7.54127 8.85162 7.49085 8.59156 7.50163 8.53724Z" fill="#FFE15A"/>
<path d="M9.58363 7.31646C9.52934 7.30565 9.49407 7.25291 9.50488 7.19862C9.51569 7.14433 9.56842 7.10906 9.62271 7.11987C9.677 7.13068 9.89804 7.27682 9.89804 7.27682C9.89804 7.27682 9.63791 7.32724 9.58363 7.31646Z" fill="#FFE15A"/>
<path d="M6.28072 6.45525C6.33501 6.46606 6.37028 6.51879 6.35947 6.57308C6.34866 6.62737 6.29593 6.66265 6.24164 6.65184C6.18735 6.64102 5.96631 6.49489 5.96631 6.49489C5.96631 6.49489 6.22643 6.44447 6.28072 6.45525Z" fill="#FFE15A"/>
<path d="M11.0751 7.23754C11.0359 7.22108 10.9912 7.23994 10.9749 7.27885C10.9749 7.27903 10.9749 7.27903 10.9749 7.27903C10.9746 7.27976 10.9731 7.28336 10.9705 7.28951C10.9125 7.42481 10.7927 7.62253 10.6717 7.80854C10.7844 7.44575 10.8874 7.05827 10.8946 7.03103C10.9054 6.99033 10.8813 6.94856 10.8407 6.93751C10.8 6.92658 10.7582 6.95026 10.7468 6.99077C10.6942 7.17921 10.5866 7.42721 10.4874 7.63715C10.5056 7.40307 10.509 7.18621 10.5092 7.17051C10.5098 7.12905 10.4774 7.09478 10.4359 7.09281C10.3969 7.09402 10.3593 7.12246 10.3562 7.16389C10.2581 8.51354 8.95939 9.11729 8.83291 9.17283C8.76676 9.17943 8.45859 9.21414 8.17889 9.31126C8.14713 9.32228 8.12018 9.33332 8.09329 9.34428C8.0833 9.34053 8.07257 9.33842 8.06129 9.33909C7.20284 9.4012 6.51835 9.04906 6.0264 8.2946C5.65471 7.72454 5.53814 7.12618 5.53699 7.12021C5.52914 7.07861 5.4893 7.0518 5.44752 7.05915C5.40592 7.06706 5.37859 7.10702 5.38647 7.14863C5.38957 7.16515 5.44072 7.42633 5.58158 7.77007C5.39312 7.47256 5.26178 7.11215 5.21555 6.92445C5.21461 6.9207 5.21221 6.91785 5.2108 6.9144C5.20866 6.90909 5.20682 6.90376 5.20363 6.89916C5.20137 6.89591 5.19841 6.89354 5.19574 6.8907C5.19156 6.88627 5.18754 6.88194 5.18241 6.87863C5.17948 6.87672 5.1762 6.87578 5.17301 6.87429C5.16736 6.87165 5.16182 6.86905 5.15552 6.8679C5.15115 6.86705 5.1467 6.86761 5.14216 6.86752C5.13756 6.86746 5.13323 6.86629 5.12854 6.86711C5.12751 6.86729 5.12672 6.86799 5.1257 6.86822C5.1247 6.86843 5.12376 6.86811 5.12277 6.86831C5.11866 6.86931 5.11553 6.87189 5.11178 6.8735C5.107 6.87558 5.10211 6.87713 5.09792 6.88003C5.09379 6.88287 5.09072 6.88656 5.08729 6.89011C5.08386 6.89363 5.08029 6.89673 5.07759 6.9008C5.07487 6.90493 5.0734 6.90959 5.07147 6.91419C5.06962 6.91867 5.06748 6.92289 5.06652 6.92773C5.06552 6.93268 5.06596 6.93778 5.06599 6.94296C5.06599 6.94709 5.06485 6.95105 5.06558 6.95527C5.06587 6.95705 5.06646 6.9589 5.06678 6.96066V6.96095C5.06687 6.96127 5.06699 6.96171 5.06707 6.96206C5.11448 7.24135 5.22744 7.53086 5.3296 7.75164C5.16739 7.56757 5.03183 7.35546 4.98378 7.22989C4.98241 7.22623 4.97962 7.22368 4.97775 7.2204C4.97491 7.21533 4.97242 7.21015 4.96858 7.20596C4.96585 7.20297 4.96254 7.20104 4.95944 7.19855C4.95478 7.1948 4.95035 7.19102 4.94496 7.18844C4.94151 7.1868 4.93776 7.18627 4.93409 7.18513C4.92844 7.18343 4.92296 7.18155 4.91696 7.18117C4.91224 7.18085 4.90755 7.18205 4.90278 7.18267C4.89835 7.18322 4.89399 7.18267 4.88959 7.18405C4.88874 7.18431 4.88816 7.18498 4.88737 7.18528C4.88655 7.18554 4.88573 7.18536 4.88491 7.18569C4.88075 7.18727 4.87779 7.19034 4.87407 7.19254C4.8697 7.19512 4.86504 7.19726 4.86132 7.2006C4.85751 7.20403 4.85488 7.20827 4.85189 7.21235C4.84905 7.21618 4.84588 7.21961 4.84377 7.22389C4.84158 7.22837 4.84076 7.23323 4.8395 7.23807C4.83824 7.24279 4.83657 7.24718 4.83624 7.25213C4.83589 7.25708 4.83712 7.26203 4.83777 7.26704C4.83832 7.27138 4.83774 7.27569 4.83909 7.27996C4.92246 7.54891 5.12297 7.86889 5.28006 8.0943C5.14916 7.99343 5.05295 7.88433 5.02503 7.8514C5.02201 7.84782 5.01906 7.84422 5.01604 7.84065C4.98903 7.80816 4.94127 7.80353 4.90858 7.83001C4.87597 7.85664 4.87084 7.90457 4.89721 7.9373C4.89865 7.93911 4.90439 7.94629 4.91397 7.95751C5.02893 8.09433 5.15417 8.22197 5.26764 8.32973L5.11242 8.26358C5.07703 8.24831 5.03543 8.26208 5.01604 8.29574C4.99667 8.32944 5.0054 8.37206 5.03646 8.39541C5.05155 8.40663 5.32644 8.61197 5.56439 8.73332C5.54194 8.73467 5.51561 8.73303 5.48613 8.73077C5.45016 8.72732 5.41477 8.75307 5.40601 8.78957C5.39739 8.82622 5.41655 8.86366 5.45136 8.87802C5.45722 8.88042 5.52973 8.91033 5.61926 8.94221C5.59837 8.95073 5.58176 8.96825 5.57487 8.99099C5.56456 9.02497 5.57906 9.0618 5.60988 9.07944C5.61791 9.08409 5.72625 9.1462 5.86025 9.20125C5.85668 9.20679 5.85375 9.21279 5.85158 9.21936C5.84109 9.25153 5.85308 9.28686 5.881 9.30616C5.90426 9.32216 6.42472 9.67536 7.03257 9.67536C7.07247 9.67536 7.11278 9.67387 7.15333 9.67059C7.19546 9.66728 7.22698 9.63033 7.22361 9.58812C7.22024 9.5459 7.18365 9.51403 7.14108 9.51792C6.75923 9.54906 6.39135 9.40569 6.17256 9.29612C6.20145 9.28906 6.21806 9.28264 6.22219 9.281C6.25594 9.26723 6.27539 9.23175 6.2688 9.19598C6.26221 9.16018 6.23139 9.13402 6.19494 9.13325C6.10611 9.13144 5.9831 9.0882 5.87713 9.04179C5.91715 9.02175 5.94053 9.00256 5.94258 9.00092C5.96564 8.98161 5.97536 8.95079 5.96751 8.92176C5.9596 8.8929 5.93546 8.87116 5.90587 8.86639C5.87332 8.861 5.83277 8.85051 5.79026 8.83765C5.83157 8.81386 5.84915 8.78767 5.85589 8.77434C5.86652 8.7531 5.86676 8.72822 5.85656 8.70684C5.84631 8.68545 5.8268 8.67001 5.80357 8.66506C5.78353 8.66072 5.76082 8.6534 5.7363 8.64382C5.74078 8.63934 5.74491 8.63424 5.74825 8.62841C5.76776 8.59533 5.75971 8.55282 5.72942 8.52904C5.72783 8.52783 5.66836 8.48113 5.5783 8.40347C5.5926 8.39822 5.60523 8.3885 5.61437 8.37534C5.63367 8.34751 5.6323 8.31025 5.61114 8.28388C5.60944 8.28177 5.54988 8.20689 5.46779 8.09316C5.49489 8.11419 5.52196 8.1357 5.54903 8.1531C5.56178 8.16118 5.57619 8.16523 5.59049 8.16523C5.60988 8.16523 5.62901 8.1579 5.64375 8.14366C5.64982 8.13781 5.65456 8.13107 5.65831 8.12389C5.70481 8.17355 5.75364 8.21864 5.80494 8.2571C5.81162 8.26211 5.81974 8.26202 5.82724 8.26454C5.84898 8.30099 5.87159 8.33749 5.89532 8.374C6.36064 9.08995 7.01675 9.47345 7.80366 9.49648C7.73121 9.54048 7.65255 9.58595 7.528 9.63446C7.50082 9.64507 7.47679 9.65568 7.45265 9.66631C7.44099 9.6686 7.43007 9.67281 7.4209 9.68005C7.20351 9.78069 7.11351 9.88012 7.07701 9.94967C7.04056 10.0188 7.072 10.0897 7.1165 10.1266C7.13033 10.1379 7.14794 10.1438 7.1656 10.1438C7.17773 10.1438 7.18986 10.1411 7.20085 10.1355C7.22795 10.1221 7.24605 10.0935 7.24485 10.0634C7.24799 10.0599 7.26132 10.0489 7.30306 10.0475C7.3335 10.045 7.39757 10.0519 7.47234 10.0579C7.54347 10.0637 7.62879 10.0704 7.71949 10.075C7.66274 10.1412 7.59679 10.2179 7.59679 10.2179C7.57699 10.2409 7.57262 10.2735 7.58581 10.3009C7.59905 10.3284 7.62758 10.3455 7.6575 10.3444C7.71805 10.3423 7.75919 10.3411 7.7862 10.3406C7.80975 10.3714 7.83867 10.3837 7.85727 10.3884C7.90998 10.4019 7.96248 10.3808 8.00206 10.3558C8.032 10.3774 8.06194 10.3865 8.08567 10.3899C8.13917 10.3973 8.18874 10.3817 8.22454 10.364C8.26165 10.388 8.29801 10.3941 8.32573 10.3941C8.32611 10.3941 8.32658 10.3941 8.32699 10.3941C8.38675 10.3938 8.43908 10.365 8.47611 10.3367C8.50883 10.3561 8.54009 10.3624 8.56426 10.3635C8.61913 10.3654 8.6646 10.3443 8.69484 10.3245C8.80283 10.3462 8.8959 10.2953 8.95742 10.2392C8.98549 10.2555 9.01218 10.2596 9.03345 10.2585C9.08815 10.2566 9.12981 10.2233 9.15656 10.1936C9.27899 10.2084 9.36685 10.1858 9.41762 10.1255C9.44533 10.0927 9.45655 10.0558 9.4596 10.0221C9.79927 10.0201 9.83 9.83468 9.83249 9.81177C9.83472 9.79097 9.82839 9.77017 9.81485 9.75417C9.80138 9.73818 9.78184 9.72827 9.76098 9.72707L8.87047 9.67352C8.83321 9.67082 8.79995 9.69581 8.79131 9.7322C8.79114 9.73281 8.77599 9.78936 8.72847 9.83459C8.66457 9.89562 8.56162 9.92784 8.44968 9.94492C8.45009 9.93467 8.44866 9.92424 8.44473 9.91404C8.42947 9.87455 8.38502 9.85536 8.34565 9.87019C8.16181 9.94153 7.86416 9.93256 7.63131 9.91636C7.66702 9.88718 7.71003 9.85826 7.74439 9.8394C7.77342 9.8234 7.78901 9.79062 7.78286 9.75798C7.7784 9.73428 7.76127 9.71779 7.74061 9.70718C7.80536 9.67448 7.85844 9.6429 7.9088 9.6122C7.99623 9.55865 8.07881 9.5082 8.22922 9.45596C8.51955 9.35509 8.85556 9.32442 8.85893 9.32409C8.86655 9.32351 8.87405 9.32155 8.88117 9.3187C8.89312 9.31375 9.84087 8.91672 10.2874 8.00061C10.2815 8.02829 10.2753 8.05361 10.2684 8.07572C10.2568 8.11346 10.2756 8.15371 10.312 8.16895C10.3401 8.18078 10.3721 8.17463 10.3937 8.15459C10.3655 8.22898 10.34 8.28748 10.3191 8.32205C10.2979 8.35724 10.3082 8.40288 10.3423 8.42562C10.3504 8.43086 10.359 8.43444 10.3678 8.43655C10.3332 8.48714 10.2982 8.53501 10.2632 8.5789C10.24 8.60808 10.2413 8.64971 10.2656 8.67725C10.2056 8.74009 10.1524 8.79189 10.112 8.82482C10.0856 8.8462 10.077 8.882 10.0891 8.91253C10.0501 8.93483 10.0181 8.95056 9.99588 8.95727C9.95861 8.96849 9.93573 9.00605 9.94276 9.04437C9.94643 9.06458 9.95779 9.08163 9.9735 9.09285C9.92665 9.10542 9.87538 9.11755 9.81972 9.1286C9.78837 9.13487 9.7642 9.15986 9.75904 9.19144C9.75395 9.22302 9.76895 9.25446 9.79666 9.2703C9.79906 9.27165 9.82523 9.28648 9.8653 9.30353C9.71709 9.36323 9.45239 9.44122 9.01807 9.48403C8.976 9.48822 8.94518 9.5258 8.94937 9.56784C8.95347 9.60991 8.98986 9.63909 9.03316 9.63669C9.85763 9.55513 10.1122 9.34876 10.1226 9.33988C10.1464 9.31996 10.1558 9.2875 10.1464 9.25788C10.1401 9.23825 10.1264 9.22243 10.1087 9.21326C10.3721 9.13035 10.4852 9.0386 10.4911 9.03367C10.5199 9.00971 10.5272 8.96828 10.5082 8.93579C10.489 8.9033 10.4492 8.88924 10.4144 8.9033C10.4046 8.90705 10.3889 8.91092 10.3692 8.91482C10.5459 8.79376 10.7336 8.64959 10.8161 8.58526C10.8306 8.5745 10.8438 8.56413 10.8554 8.55441C10.8874 8.52748 10.8919 8.4799 10.8655 8.44741C10.8392 8.4151 10.7914 8.40968 10.7587 8.43558C10.7467 8.44501 10.7342 8.45474 10.7214 8.46476C10.6833 8.49306 10.6346 8.52508 10.5814 8.55798C10.7821 8.3302 10.984 8.08325 11.0417 8.01233C11.047 8.00588 11.0521 7.99947 11.0574 7.99302C11.0838 7.96009 11.0787 7.9119 11.0458 7.88541C11.0127 7.85849 10.9645 7.86403 10.9381 7.89678L10.9379 7.89693L10.9378 7.8971C10.9364 7.89874 10.9299 7.90683 10.919 7.92031C10.8586 7.99407 10.7949 8.0655 10.7321 8.13221C10.9365 7.76181 11.0913 7.39721 11.1139 7.34319C11.1148 7.34125 11.1155 7.33932 11.1163 7.33733C11.1326 7.29863 11.1142 7.25371 11.0751 7.23754ZM7.48359 9.82059L7.50451 9.82331C7.47884 9.84731 7.45799 9.8742 7.44137 9.90198C7.40499 9.89905 7.37197 9.89653 7.3461 9.89532C7.38175 9.872 7.42763 9.84675 7.48359 9.82059Z" fill="#FFE15A"/>
</svg>
