<svg width="12" height="12" viewBox="0 0 12 12" fill="none" xmlns="http://www.w3.org/2000/svg">
<path d="M6.07835 4.329C5.6442 4.329 5.29688 3.98268 5.29688 3.54978V0.779221C5.29688 0.34632 5.6442 0 6.07835 0C6.5125 0 6.85983 0.34632 6.85983 0.779221V3.54978C6.85983 3.98268 6.49514 4.329 6.07835 4.329Z" fill="#229FFF"/>
<path d="M4.22008 5.48931C4.11588 5.9049 3.68173 6.14732 3.26494 6.04343L0.573191 5.33347C0.156403 5.22957 -0.0867225 4.79667 0.0174743 4.38109C0.121671 3.9655 0.555824 3.72308 0.972612 3.82698L3.66436 4.53693C4.08115 4.64083 4.32428 5.07373 4.22008 5.48931Z" fill="#229FFF"/>
<path d="M7.76278 5.4544C7.86697 5.86999 8.30113 6.11241 8.71792 6.00851L11.4097 5.29856C11.8265 5.19466 12.0696 4.76176 11.9654 4.34618C11.8612 3.93059 11.427 3.68817 11.0102 3.79206L8.31849 4.50202C7.90171 4.60592 7.64121 5.03882 7.76278 5.4544Z" fill="#229FFF"/>
<path d="M2.29252 11.1167C1.94519 10.857 1.8931 10.3721 2.15359 10.0258L3.85547 7.84401C4.11596 7.49769 4.60221 7.44574 4.94954 7.70548C5.29686 7.96522 5.34896 8.45007 5.08846 8.79639L3.38658 10.9782C3.12609 11.3245 2.63984 11.3765 2.29252 11.1167Z" fill="#229FFF"/>
<path d="M9.81196 11.0995C10.1593 10.8398 10.2114 10.3549 9.95089 10.0086L8.24901 7.80946C7.98852 7.46314 7.50227 7.4112 7.15494 7.67094C6.80762 7.93068 6.75552 8.41553 7.01601 8.76185L8.7179 10.9437C8.97839 11.3073 9.46464 11.3592 9.81196 11.0995Z" fill="#229FFF"/>
</svg>
