<svg width="12" height="12" viewBox="0 0 12 12" fill="none" xmlns="http://www.w3.org/2000/svg">
<path d="M9.00003 5.57153H3.00003C2.52664 5.57153 2.14288 5.95529 2.14288 6.42868V9.42868C2.14288 9.90206 2.52664 10.2858 3.00003 10.2858H9.00003C9.47341 10.2858 9.85717 9.90206 9.85717 9.42868V6.42868C9.85717 5.95529 9.47341 5.57153 9.00003 5.57153Z" stroke="black" stroke-opacity="0.4" stroke-width="1.2" stroke-linecap="round" stroke-linejoin="round"/>
<path d="M3.85712 5.5715V3.85721C3.85712 3.28889 4.08288 2.74385 4.48474 2.34198C4.88661 1.94012 5.43165 1.71436 5.99997 1.71436C6.56829 1.71436 7.11334 1.94012 7.5152 2.34198C7.91707 2.74385 8.14283 3.28889 8.14283 3.85721V5.5715" stroke="black" stroke-opacity="0.4" stroke-width="1.2" stroke-linecap="round" stroke-linejoin="round"/>
</svg>
