<svg width="11" height="16" viewBox="0 0 11 16" fill="none" xmlns="http://www.w3.org/2000/svg">
<path d="M10.3024 9.1835L5.11315 7.98341C3.77592 7.67505 2.83839 6.44453 2.87427 5.04482C2.91014 3.6451 3.90941 2.46635 5.2606 2.22987C6.61179 1.99339 7.93829 2.76509 8.42837 4.07274C8.91845 5.3804 8.43552 6.85954 7.2751 7.60503C7.25295 7.62191 7.24223 7.65027 7.24754 7.67797C7.25285 7.70567 7.27323 7.72781 7.29998 7.73492L9.60845 8.26861C9.66337 8.28161 9.72066 8.26064 9.75498 8.21496C10.8732 6.70635 11.0872 4.69137 10.3116 2.97298C9.53603 1.25459 7.89697 0.112071 6.0476 0.000720724H5.83196C3.67668 -0.0337076 1.68408 1.16762 0.672127 3.11153C-0.339822 5.05545 -0.200635 7.41448 1.03255 9.2202L5.64949 15.9548C5.66979 15.9832 5.70215 16 5.73658 16C5.77101 16 5.80336 15.9832 5.82366 15.9548L10.3687 9.36139C10.3929 9.3309 10.3993 9.2896 10.3856 9.25296C10.372 9.21632 10.3403 9.18986 10.3024 9.1835Z" fill="#FFC627"/>
</svg>
