<svg width="16" height="16" viewBox="0 0 16 16" fill="none" xmlns="http://www.w3.org/2000/svg">
<path d="M6.73857 3.15203V6.60898H9.17169V3.15203H11.5793L8.95513 0.410306C8.4201 -0.13274 7.5666 -0.13274 7.03157 0.410306L4.4201 3.15203H6.73857Z" fill="#DA291C"/>
<path d="M3.89786 3.69536L0.216327 7.50993C-0.0766664 7.81456 -0.0766664 8.31787 0.216327 8.62251L3.88512 12.4371L3.89786 3.69536Z" fill="#DA291C"/>
<path d="M15.7832 7.50863L12.0252 3.61459V12.5285L15.7704 8.63446C16.0762 8.31658 16.0762 7.81327 15.7832 7.50863Z" fill="#DA291C"/>
<path d="M9.1719 13.0854V9.64165H6.73878V13.0854H4.52222L6.84069 15.496C7.47763 16.1582 8.52222 16.1582 9.1719 15.496L11.4904 13.0854C11.4904 13.0986 9.1719 13.0986 9.1719 13.0854Z" fill="#DA291C"/>
</svg>
