<svg width="15" height="15" viewBox="0 0 15 15" fill="none" xmlns="http://www.w3.org/2000/svg">
<path d="M13.8766 2.5863H1.12339C0.50294 2.5863 0 3.08924 0 3.70969V5.86216H15V3.70969C15 3.08924 14.4971 2.5863 13.8766 2.5863Z" fill="#F5F5F5"/>
<path d="M1.12339 2.6863H13.8766C14.4418 2.6863 14.9 3.14447 14.9 3.70969V5.76216H0.1V3.70969C0.1 3.14447 0.558168 2.6863 1.12339 2.6863Z" stroke="black" stroke-opacity="0.37" stroke-width="0.2"/>
<path d="M0 11.2902C0 11.9106 0.50294 12.4136 1.12339 12.4136H13.8766C14.497 12.4136 15 11.9106 15 11.2902V9.1377H0V11.2902Z" fill="#FF4B55"/>
<path d="M15 5.86218H0V9.13787H15V5.86218Z" fill="#41479B"/>
</svg>
