<svg width="18" height="12" viewBox="0 0 18 12" fill="none" xmlns="http://www.w3.org/2000/svg">
<path fill-rule="evenodd" clip-rule="evenodd" d="M0.824951 2.24995C0.824951 1.04873 1.79873 0.0749512 2.99995 0.0749512H15C16.2012 0.0749512 17.175 1.04873 17.175 2.24995V3.74995V9.74995C17.175 10.9512 16.2012 11.925 15 11.925H2.99995C1.79873 11.925 0.824951 10.9512 0.824951 9.74995V3.74995V2.24995ZM2.99995 1.42495C2.54432 1.42495 2.17495 1.79432 2.17495 2.24995V3.07495H15.825V2.24995C15.825 1.79432 15.4556 1.42495 15 1.42495H2.99995ZM15.825 4.42495H2.17495V9.74995C2.17495 10.2056 2.54432 10.575 2.99995 10.575H15C15.4556 10.575 15.825 10.2056 15.825 9.74995V4.42495ZM9.82495 8.24995C9.82495 7.87716 10.1272 7.57495 10.5 7.57495H13.5C13.8727 7.57495 14.175 7.87716 14.175 8.24995C14.175 8.62274 13.8727 8.92495 13.5 8.92495H10.5C10.1272 8.92495 9.82495 8.62274 9.82495 8.24995Z" fill="black"/>
</svg>
