<svg width="16" height="12" viewBox="0 0 16 12" fill="none" xmlns="http://www.w3.org/2000/svg">
<path fill-rule="evenodd" clip-rule="evenodd" d="M8 9.75C6.06271 9.75 4.00451 8.58269 2.37694 6C4.00451 3.41731 6.06271 2.25 8 2.25C9.93729 2.25 11.9955 3.41731 13.6231 6C11.9955 8.58269 9.93729 9.75 8 9.75ZM15.1478 5.6221C13.3086 2.46908 10.7206 0.75 8 0.75C5.27937 0.75 2.69142 2.46908 0.852166 5.62209C0.715945 5.85562 0.715945 6.14438 0.852166 6.3779C2.69142 9.53091 5.27937 11.25 8 11.25C10.7206 11.25 13.3086 9.53092 15.1478 6.3779C15.2841 6.14438 15.2841 5.85562 15.1478 5.6221ZM8 9C9.65685 9 11 7.65685 11 6C11 4.34315 9.65685 3 8 3C6.34315 3 5 4.34315 5 6C5 7.65685 6.34315 9 8 9Z" fill="#595959"/>
</svg>
