<svg width="12" height="12" viewBox="0 0 12 12" fill="none" xmlns="http://www.w3.org/2000/svg">
<path d="M9.99997 5.57129H3.99997C3.52658 5.57129 3.14282 5.95504 3.14282 6.42843V9.42843C3.14282 9.90182 3.52658 10.2856 3.99997 10.2856H9.99997C10.4734 10.2856 10.8571 9.90182 10.8571 9.42843V6.42843C10.8571 5.95504 10.4734 5.57129 9.99997 5.57129Z" stroke="black" stroke-opacity="0.4" stroke-width="1.2" stroke-linecap="round" stroke-linejoin="round"/>
<path d="M5 5V3.66667C5 3.22464 4.78929 2.80072 4.41421 2.48816C4.03914 2.17559 3.53043 2 3 2C2.46957 2 1.96086 2.17559 1.58579 2.48816C1.21071 2.80072 1 3.22464 1 3.66667V5" stroke="black" stroke-opacity="0.4" stroke-width="1.2" stroke-linecap="round" stroke-linejoin="round"/>
</svg>
